<?xml version="1.0" encoding="UTF-8"?>
<svg xmlns="http://www.w3.org/2000/svg" xmlns:xlink="http://www.w3.org/1999/xlink" width="32px" height="32px" viewBox="0 0 32 32" version="1.1">
<g id="surface1">
<path style=" stroke:none;fill-rule:evenodd;fill:rgb(1.176471%,5.098039%,27.058824%);fill-opacity:1;" d="M 15.171875 7.847656 C 12.890625 5.472656 9.054688 5.4375 6.5625 7.871094 C 6.554688 7.878906 6.546875 7.886719 6.539062 7.894531 C 4.125 10.105469 4.089844 13.808594 6.5625 16.230469 L 6.570312 16.234375 L 15.917969 25.527344 L 25.4375 16.230469 C 25.445312 16.222656 25.453125 16.214844 25.460938 16.207031 C 27.875 13.992188 27.910156 10.289062 25.4375 7.871094 C 22.960938 5.453125 19.101562 5.453125 16.625 7.871094 C 16.429688 8.0625 16.167969 8.167969 15.894531 8.164062 C 15.621094 8.160156 15.359375 8.046875 15.171875 7.847656 Z M 15.929688 5.757812 C 12.792969 3.207031 8.164062 3.449219 5.144531 6.386719 C 1.824219 9.441406 1.863281 14.503906 5.128906 17.699219 C 5.128906 17.699219 5.132812 17.703125 5.132812 17.703125 L 15.1875 27.703125 C 15.585938 28.097656 16.226562 28.101562 16.625 27.707031 L 26.855469 17.714844 C 30.175781 14.660156 30.136719 9.59375 26.867188 6.398438 C 23.828125 3.429688 19.195312 3.21875 15.929688 5.757812 Z M 15.929688 5.757812 "/>
</g>
</svg>
